<?xml version="1.0" standalone="no"?>
<!DOCTYPE svg PUBLIC "-//W3C//DTD SVG 20010904//EN"
 "http://www.w3.org/TR/2001/REC-SVG-20010904/DTD/svg10.dtd">
<svg version="1.0" xmlns="http://www.w3.org/2000/svg"
 width="700.000000pt" height="700.000000pt" viewBox="0 0 700.000000 700.000000"
 preserveAspectRatio="xMidYMid meet">
<metadata>
Created by potrace 1.11, written by Peter Selinger 2001-2013
</metadata>
<g transform="translate(0.000000,700.000000) scale(0.100000,-0.100000)"
fill="#000000" stroke="none">
<path d="M3278 6996 c-1 -2 -41 -6 -88 -10 -47 -4 -96 -8 -110 -11 -14 -2 -45
-7 -70 -9 -25 -3 -56 -8 -70 -10 -14 -3 -43 -7 -65 -11 -22 -3 -47 -7 -55 -10
-8 -2 -26 -6 -40 -9 -67 -11 -257 -62 -360 -96 -388 -126 -746 -317 -1064
-564 -554 -432 -957 -1002 -1180 -1670 -36 -106 -81 -269 -92 -330 -3 -17 -10
-51 -15 -76 -14 -59 -15 -67 -24 -120 -3 -25 -9 -58 -11 -74 -3 -16 -7 -50 -9
-75 -3 -25 -8 -82 -12 -126 -15 -157 -8 -603 12 -706 2 -11 6 -46 9 -78 7 -73
38 -230 72 -364 187 -743 604 -1392 1207 -1878 91 -73 237 -181 279 -204 10
-5 55 -33 101 -62 243 -151 685 -338 915 -388 44 -10 58 -13 97 -24 61 -16
224 -46 305 -56 25 -3 56 -7 69 -10 137 -26 682 -26 843 0 13 2 59 9 103 15
44 7 89 14 100 16 11 2 36 7 55 10 75 13 210 47 320 81 291 87 487 173 795
347 11 6 67 42 125 80 259 171 493 373 690 596 41 47 78 87 81 90 3 3 43 55
89 115 345 455 561 944 664 1505 13 74 28 167 32 205 3 39 8 84 11 100 8 60
10 512 2 597 -13 143 -22 210 -39 308 -6 36 -13 79 -16 95 -22 126 -124 477
-169 580 -7 17 -30 71 -51 120 -194 468 -576 980 -964 1295 -30 25 -57 48 -60
51 -10 11 -167 127 -230 170 -392 265 -894 470 -1340 544 -52 9 -106 18 -120
20 -14 3 -54 7 -90 11 -36 3 -78 8 -95 11 -33 5 -531 13 -537 9z m447 -111
c110 -6 131 -8 215 -20 25 -4 61 -9 80 -11 228 -31 573 -130 815 -234 1133
-486 1911 -1542 2040 -2770 3 -30 8 -73 10 -95 7 -57 7 -405 0 -500 -11 -167
-50 -407 -91 -570 -14 -55 -27 -104 -28 -110 -45 -187 -176 -502 -302 -727
-97 -174 -277 -433 -384 -553 -342 -384 -681 -645 -1104 -850 -343 -166 -772
-289 -1116 -319 -30 -3 -86 -8 -125 -12 -82 -7 -434 -7 -485 0 -19 3 -62 8
-95 11 -126 13 -149 16 -285 41 -434 79 -870 257 -1254 512 -56 37 -103 69
-106 72 -3 3 -20 17 -39 30 -77 54 -233 188 -340 293 -389 381 -673 832 -844
1337 -67 198 -120 415 -143 585 -4 28 -8 58 -10 67 -1 9 -5 45 -9 80 -3 35 -8
81 -10 103 -15 138 -2 564 21 710 19 123 49 275 70 360 14 55 27 108 29 118 2
10 25 79 50 153 235 692 681 1285 1286 1706 270 189 616 356 932 452 64 20
127 38 139 41 13 2 73 16 133 29 101 23 244 48 355 61 25 2 110 8 190 11 80 4
146 8 147 9 4 2 125 -2 258 -10z"/>
<path d="M3417 6504 c-1 -1 -56 -5 -122 -8 -65 -4 -122 -9 -125 -11 -3 -1 -36
-6 -75 -10 -38 -4 -72 -8 -75 -10 -3 -2 -22 -6 -42 -9 -242 -38 -546 -141
-813 -276 -902 -454 -1525 -1364 -1622 -2370 -15 -159 -8 -575 12 -678 2 -11
6 -42 10 -69 22 -163 82 -393 152 -583 338 -917 1123 -1622 2072 -1859 64 -16
132 -32 151 -35 19 -3 45 -8 58 -10 13 -3 60 -10 105 -16 45 -6 96 -14 112
-16 59 -10 481 -12 570 -3 509 53 967 213 1375 482 134 88 164 111 320 245
353 302 647 718 823 1167 78 200 149 473 172 661 3 27 10 81 14 119 20 162 17
544 -4 656 -3 12 -7 43 -10 68 -3 25 -7 57 -10 71 -3 14 -10 52 -15 85 -14 78
-64 267 -96 363 -341 1016 -1187 1769 -2233 1986 -64 13 -145 27 -181 31 -36
4 -72 9 -81 10 -60 11 -432 27 -442 19z m388 -118 c28 -4 82 -11 120 -17 39
-6 84 -13 100 -15 17 -3 37 -7 45 -9 8 -2 31 -6 51 -9 66 -10 343 -94 449
-136 875 -349 1523 -1088 1744 -1990 59 -242 80 -422 80 -690 1 -228 -10 -355
-45 -535 -11 -55 -22 -111 -25 -125 -3 -14 -23 -86 -45 -160 -273 -918 -974
-1632 -1892 -1929 -109 -35 -276 -76 -352 -86 -27 -4 -53 -9 -56 -11 -3 -1
-28 -6 -56 -9 -27 -3 -60 -7 -72 -10 -35 -6 -248 -18 -336 -18 -188 1 -412 23
-575 58 -14 3 -34 7 -45 9 -267 52 -628 200 -906 372 -494 306 -920 810 -1133
1339 -15 39 -31 77 -35 85 -12 24 -78 237 -100 325 -24 97 -58 288 -66 370 -3
33 -8 83 -11 110 -6 54 -6 367 0 425 2 19 7 69 11 110 4 41 9 84 11 95 2 11 7
36 10 55 5 29 26 140 39 200 16 78 86 294 130 405 228 565 642 1055 1160 1374
253 156 519 269 800 339 189 48 270 61 510 85 51 5 437 -1 490 -7z"/>
<path d="M3309 6006 c-2 -2 -31 -6 -64 -9 -53 -5 -129 -16 -230 -33 -82 -14
-347 -89 -400 -114 -11 -5 -45 -19 -75 -30 -56 -22 -227 -105 -290 -142 -602
-353 -1021 -911 -1189 -1583 -11 -44 -22 -93 -25 -110 -3 -16 -8 -41 -10 -55
-6 -30 -13 -75 -23 -156 -15 -121 -9 -496 11 -624 60 -390 188 -726 401 -1045
173 -261 420 -509 678 -682 114 -77 125 -83 267 -157 241 -124 498 -208 760
-246 41 -6 86 -14 100 -17 45 -10 474 -11 535 -2 193 30 268 43 340 60 517
127 990 423 1336 838 293 351 488 790 555 1251 25 170 24 559 -1 700 -2 14 -9
54 -15 90 -14 90 -14 93 -49 221 -126 467 -403 910 -771 1229 -41 36 -77 67
-80 71 -3 3 -43 33 -90 66 -356 256 -712 397 -1185 468 -43 7 -481 16 -486 11z
m49 -418 c0 -170 3 -312 5 -315 5 -4 145 -6 273 -4 l41 1 -1 298 c-1 163 0
304 2 314 3 10 11 15 25 13 12 -2 47 -6 77 -9 215 -19 467 -88 705 -194 574
-254 1036 -746 1264 -1346 36 -94 96 -297 107 -365 3 -14 9 -51 14 -81 15 -88
27 -214 34 -352 l2 -48 -150 -1 c-83 0 -218 -1 -301 -2 l-150 -2 0 -153 c0
-85 4 -156 9 -159 5 -4 135 -5 288 -4 l280 2 -7 -48 c-10 -82 -55 -274 -85
-363 -193 -587 -571 -1051 -1105 -1360 -223 -129 -536 -242 -760 -275 -22 -4
-47 -8 -55 -10 -8 -2 -44 -7 -80 -10 -36 -4 -75 -8 -87 -10 -27 -4 -25 -39
-27 327 0 157 -4 289 -8 293 -8 8 -297 10 -305 2 -3 -3 -5 -146 -5 -317 l0
-310 -67 5 c-36 4 -77 8 -91 10 -14 2 -45 7 -70 10 -25 3 -52 8 -60 10 -8 2
-31 7 -50 10 -114 19 -300 77 -450 141 -271 114 -480 248 -699 449 -375 343
-634 808 -731 1314 -29 150 -35 227 -18 232 7 2 147 4 310 4 256 0 297 2 300
15 3 12 3 139 -1 276 l-1 31 -316 -2 -316 -3 6 82 c12 139 21 208 42 306 183
869 837 1576 1684 1818 97 28 123 34 190 47 14 3 50 10 80 15 30 6 84 14 120
17 36 3 66 6 67 7 1 1 18 2 37 3 l34 1 0 -310z"/>
<path d="M1832 4572 l-40 -57 67 -46 c36 -25 244 -169 461 -320 217 -152 424
-296 460 -321 36 -24 192 -133 348 -241 155 -109 285 -197 290 -197 4 0 24 24
44 54 30 43 35 56 24 65 -7 6 -152 107 -322 225 -170 118 -394 274 -499 347
-233 163 -766 533 -781 542 -7 4 -28 -17 -52 -51z"/>
</g>
</svg>
